<svg width="16" height="21" viewBox="0 0 16 21" fill="none" xmlns="http://www.w3.org/2000/svg">
<path d="M5.10352 0.368164L0.656128 2.55863L10.9428 9.18816L15.3836 6.13186L5.10352 0.368164Z" stroke="#333333" stroke-width="0.621375"/>
<path d="M2.33301 3.6377L0.656128 4.46477L10.9428 11.0878L15.3836 8.03154L13.8657 7.17862" stroke="#333333" stroke-width="0.621375"/>
<path d="M2.33301 5.5376L0.656128 6.36467L10.9428 12.9942L15.3836 9.93791L13.8657 9.08498" stroke="#333333" stroke-width="0.621375"/>
<path d="M2.33301 7.44336L0.656128 8.27044L10.9428 14.8935L15.3836 11.8372L13.8657 10.9843" stroke="#333333" stroke-width="0.621375"/>
<path d="M2.33301 9.34326L0.656128 10.1703L10.9428 16.7999L15.3836 13.7436L13.8657 12.8906" stroke="#333333" stroke-width="0.621375"/>
<path d="M2.33301 11.2495L0.656128 12.0766L10.9428 18.7061L15.3836 15.6434L13.8657 14.7904" stroke="#333333" stroke-width="0.621375"/>
<path d="M2.33301 13.1558L0.656128 13.9764L10.9428 20.6059L15.3836 17.5496L13.8657 16.6967" stroke="#333333" stroke-width="0.621375"/>
</svg>
