<svg width="16" height="21" viewBox="0 0 16 21" fill="none" xmlns="http://www.w3.org/2000/svg">
<g clip-path="url(#clip0_502_465)">
<path d="M7.99667 0.372559L0.644775 4.27452L7.99667 9.0523L15.3486 4.27452L7.99667 0.372559Z" stroke="#333333" stroke-width="0.684718"/>
<path d="M2.42625 5.25488L0.644775 6.2026L7.99667 10.9804L15.3486 6.2026L13.7665 5.35946" stroke="#333333" stroke-width="0.684718"/>
<path d="M2.42625 7.18311L0.644775 8.12428L7.99667 12.9086L15.3486 8.12428L13.7665 7.28115" stroke="#333333" stroke-width="0.684718"/>
<path d="M2.42625 9.11133L0.644775 10.0525L7.99667 14.8303L15.3486 10.0525L13.7665 9.20937" stroke="#333333" stroke-width="0.684718"/>
<path d="M2.42625 11.0327L0.644775 11.9804L7.99667 16.7582L15.3486 11.9804L13.7665 11.1373" stroke="#333333" stroke-width="0.684718"/>
<path d="M2.42625 12.9609L0.644775 13.9021L7.99667 18.6864L15.3486 13.9021L13.7665 13.059" stroke="#333333" stroke-width="0.684718"/>
<path d="M2.42625 14.8887L0.644775 15.8298L7.99667 20.6076L15.3486 15.8298L13.7665 14.9867" stroke="#333333" stroke-width="0.684718"/>
</g>
<defs>
<clipPath id="clip0_502_465">
<rect width="16" height="21" fill="white"/>
</clipPath>
</defs>
</svg>
